<?xml version="1.0" encoding="UTF-8"?><svg id="Layer_2" xmlns="http://www.w3.org/2000/svg" viewBox="0 0 302.97 45.11"><g id="Layer_2-2"><path d="m40.08,2.12c-2.7-1.83-5.95-2.51-9.16-1.9-2.03.39-3.93,1.29-5.51,2.6-1.12.93-2.06,2.05-2.79,3.32-1.46,2.53-1.96,5.51-1.41,8.37.26,1.34.73,2.61,1.4,3.78.33.58.71,1.13,1.14,1.65l.53.64h0s0,0,0,0l8.84,10.61.02.02.02.02s.04.04.06.07c.26.32.44.7.52,1.11.12.64-.01,1.29-.38,1.83-.13.19-.29.36-.46.51-.31.26-.7.44-1.1.52-.87.17-1.77-.16-2.34-.84l-7.58-9.1c-.15-.19-.3-.37-.46-.55l-8.31-9.98-.81-.97c-.29-.33-.49-.73-.58-1.17-.17-.87.16-1.77.84-2.34.31-.26.7-.44,1.1-.52.4-.08.8-.05,1.19.07l1.31.42.26-1.35c.36-1.85,1.02-3.61,1.95-5.24.21-.37.44-.74.68-1.08l.87-1.28-1.44-.55C16.38,0,14.08-.21,11.83.22c-2.03.39-3.93,1.29-5.52,2.6h0C2.89,5.67,1.28,10.15,2.12,14.52c.32,1.67.99,3.26,1.95,4.65l.74.97,9.23,11.08h.01s.01.03.01.03c.04.05.09.1.13.15h.01s.01.03.01.03l7.73,9.28.83.9c2.85,2.79,6.9,4.04,10.85,3.29,2.04-.39,3.95-1.29,5.52-2.6.88-.73,1.65-1.58,2.3-2.54.91-1.34,1.54-2.82,1.87-4.39.33-1.57.34-3.17.03-4.77-.41-2.17-1.4-4.19-2.86-5.83l-9.06-10.88-.07-.09c-.26-.32-.44-.7-.52-1.1-.17-.87.16-1.77.84-2.34.32-.26.7-.44,1.1-.52.64-.12,1.29.01,1.83.38.54.37.9.92,1.03,1.56l.23,1.2,1.2-.23,7.2-1.37,1.2-.23-.23-1.2c-.61-3.21-2.44-5.98-5.14-7.82Z"/><path d="m9.06,32.88l-.46-.55-.71.13-6.69,1.28-1.2.23.23,1.2c.61,3.2,2.44,5.98,5.14,7.81,2.7,1.84,5.95,2.51,9.16,1.9.66-.13,1.32-.31,1.95-.54l1.63-.6-1.11-1.33-6.53-7.85s-.04-.05-.06-.08h-.01s-.01-.03-.01-.03c-.01-.02-.03-.03-.04-.05h-.01s-.01-.03-.01-.03h0s-.03-.04-.04-.06l-1.21-1.45Z"/><path d="m73.19,29.38c-1.02-.31-1.83-.72-2.42-1.24l.91-2.04c.58.46,1.29.83,2.14,1.12.84.29,1.69.44,2.54.44,1.05,0,1.84-.17,2.36-.51.52-.34.78-.78.78-1.34,0-.41-.15-.74-.44-1-.29-.26-.66-.47-1.1-.62s-1.05-.32-1.82-.51c-1.08-.26-1.95-.51-2.62-.77-.67-.26-1.24-.66-1.72-1.2-.48-.55-.72-1.29-.72-2.22,0-.78.21-1.49.64-2.14.42-.64,1.07-1.15,1.92-1.53.86-.38,1.91-.57,3.15-.57.86,0,1.71.11,2.55.32.84.22,1.56.53,2.17.93l-.83,2.04c-.62-.36-1.27-.64-1.94-.83-.67-.19-1.33-.28-1.96-.28-1.04,0-1.81.17-2.32.53-.51.35-.76.82-.76,1.4,0,.4.14.74.44.99.29.26.66.46,1.1.61s1.05.32,1.82.51c1.05.24,1.92.5,2.59.76.67.26,1.25.67,1.73,1.21.48.54.72,1.27.72,2.19,0,.78-.21,1.49-.64,2.12-.43.63-1.07,1.14-1.93,1.52s-1.92.57-3.16.57c-1.09,0-2.15-.16-3.17-.46Z"/><path d="m95.47,17.7h-4.7v-2.23h12.02v2.23h-4.7v11.94h-2.63v-11.94Z"/><path d="m118.78,24.64v5h-2.63v-4.96l-5.57-9.21h2.81l4.15,6.9,4.19-6.9h2.59l-5.55,9.17Z"/><path d="m133.94,15.47h2.63v11.94h7.41v2.23h-10.04v-14.17Z"/><path d="m164.79,27.43v2.21h-10.63v-14.17h10.34v2.21h-7.71v3.68h6.84v2.17h-6.84v3.91h8Z"/><path d="m190.73,29.38c-1.02-.31-1.83-.72-2.42-1.24l.91-2.04c.58.46,1.29.83,2.14,1.12.84.29,1.69.44,2.54.44,1.05,0,1.84-.17,2.36-.51.52-.34.78-.78.78-1.34,0-.41-.15-.74-.44-1-.29-.26-.66-.47-1.1-.62s-1.05-.32-1.82-.51c-1.08-.26-1.95-.51-2.62-.77-.67-.26-1.24-.66-1.72-1.2-.48-.55-.72-1.29-.72-2.22,0-.78.21-1.49.64-2.14.42-.64,1.07-1.15,1.92-1.53.86-.38,1.91-.57,3.15-.57.86,0,1.71.11,2.55.32.84.22,1.56.53,2.17.93l-.83,2.04c-.62-.36-1.27-.64-1.94-.83-.67-.19-1.33-.28-1.96-.28-1.04,0-1.81.17-2.32.53-.51.35-.76.82-.76,1.4,0,.4.14.74.44.99.29.26.66.46,1.1.61s1.05.32,1.82.51c1.05.24,1.92.5,2.59.76.67.26,1.25.67,1.73,1.21.48.54.72,1.27.72,2.19,0,.78-.21,1.49-.64,2.12-.43.63-1.07,1.14-1.93,1.52s-1.92.57-3.16.57c-1.09,0-2.15-.16-3.17-.46Z"/><path d="m213.01,28.9c-1.15-.63-2.06-1.49-2.71-2.6s-.98-2.35-.98-3.74.33-2.64.99-3.75c.66-1.11,1.57-1.97,2.72-2.6,1.15-.63,2.45-.94,3.88-.94,1.16,0,2.22.2,3.18.61.96.4,1.77.99,2.43,1.76l-1.7,1.6c-1.03-1.11-2.29-1.66-3.79-1.66-.97,0-1.84.21-2.61.64s-1.37,1.02-1.8,1.77c-.43.76-.65,1.61-.65,2.57s.22,1.81.65,2.57,1.03,1.35,1.8,1.77c.77.42,1.64.64,2.61.64,1.5,0,2.76-.56,3.79-1.68l1.7,1.62c-.66.77-1.47,1.36-2.44,1.76-.96.41-2.03.61-3.19.61-1.43,0-2.72-.31-3.88-.94Z"/><path d="m242.41,29.64l-2.89-4.15c-.12.01-.3.02-.55.02h-3.2v4.13h-2.63v-14.17h5.83c1.23,0,2.3.2,3.21.61.91.41,1.61.99,2.09,1.74.49.76.73,1.65.73,2.69s-.26,1.98-.78,2.75c-.52.77-1.26,1.34-2.24,1.72l3.26,4.66h-2.83Zm-.95-11.21c-.59-.49-1.46-.73-2.61-.73h-3.08v5.65h3.08c1.15,0,2.02-.25,2.61-.74.59-.49.89-1.19.89-2.1s-.3-1.6-.89-2.08Z"/><path d="m256.04,15.47h2.63v14.17h-2.63v-14.17Z"/><path d="m279.63,16.08c.91.41,1.61.99,2.09,1.74.49.76.73,1.65.73,2.69s-.24,1.92-.73,2.68c-.49.76-1.18,1.35-2.09,1.75-.91.41-1.98.61-3.21.61h-3.2v4.09h-2.63v-14.17h5.83c1.23,0,2.3.2,3.21.61Zm-.72,6.52c.59-.49.89-1.18.89-2.08s-.3-1.6-.89-2.08c-.59-.49-1.46-.73-2.61-.73h-3.08v5.63h3.08c1.15,0,2.02-.24,2.61-.73Z"/><path d="m295.65,17.7h-4.7v-2.23h12.02v2.23h-4.7v11.94h-2.63v-11.94Z"/></g></svg>