<?xml version="1.0" encoding="UTF-8"?><svg id="Layer_2" xmlns="http://www.w3.org/2000/svg" viewBox="0 0 232.2 177.21"><g id="Layer_2-2"><path d="m166.65,6.18c-7.87-5.34-17.34-7.3-26.67-5.52-5.9,1.12-11.46,3.74-16.06,7.58-3.27,2.72-6,5.98-8.13,9.68-4.24,7.37-5.69,16.03-4.1,24.37.74,3.89,2.11,7.59,4.07,11,.96,1.68,2.07,3.29,3.31,4.8l1.54,1.87h0s0,.02,0,.02l25.73,30.9.06.07.06.06c.06.06.12.13.17.2.77.92,1.29,2.03,1.51,3.22.36,1.87-.03,3.76-1.1,5.33-.38.56-.83,1.06-1.34,1.48-.91.76-2.02,1.28-3.22,1.51-2.53.48-5.14-.45-6.81-2.44l-22.06-26.49c-.43-.55-.88-1.09-1.34-1.61l-24.19-29.05-2.35-2.83c-.86-.96-1.44-2.14-1.68-3.41-.49-2.54.45-5.15,2.45-6.81.92-.76,2.03-1.29,3.21-1.51,1.18-.22,2.34-.16,3.46.2l3.81,1.21.76-3.92c1.05-5.38,2.96-10.52,5.69-15.26.62-1.09,1.29-2.15,1.97-3.15l2.54-3.71-4.2-1.62C97.62-.02,90.92-.61,84.38.64c-5.9,1.13-11.46,3.75-16.06,7.58h0c-9.97,8.3-14.66,21.35-12.23,34.05.93,4.88,2.88,9.5,5.68,13.55l2.16,2.83,26.87,32.26.03.04.03.04c.13.15.25.29.37.44l.03.04.03.04,22.51,27.03,2.42,2.61c8.29,8.12,20.09,11.77,31.59,9.57,5.93-1.13,11.49-3.75,16.08-7.57,2.55-2.13,4.81-4.61,6.69-7.39,2.66-3.91,4.49-8.21,5.43-12.78.95-4.56.98-9.24.09-13.89-1.21-6.33-4.09-12.2-8.33-16.97l-26.39-31.69-.22-.27c-.77-.92-1.3-2.03-1.52-3.21-.49-2.54.45-5.15,2.45-6.82.92-.76,2.03-1.29,3.21-1.51,1.87-.35,3.76.04,5.33,1.11,1.57,1.07,2.63,2.68,2.99,4.55l.66,3.5,3.5-.67,20.98-4,3.5-.67-.67-3.5c-1.78-9.34-7.09-17.42-14.95-22.77Z"/><path d="m76.3,95.75l-1.34-1.61-2.06.39-19.47,3.72-3.5.67.67,3.5c1.78,9.32,7.09,17.4,14.96,22.75,7.87,5.35,17.34,7.31,26.66,5.53,1.93-.37,3.85-.9,5.68-1.57l4.74-1.74-3.23-3.88-19.02-22.85c-.06-.08-.12-.15-.18-.22l-.03-.04-.03-.04s-.08-.09-.12-.14l-.03-.04-.03-.04-.02-.03s-.08-.09-.12-.14l-3.52-4.23Z"/><path d="m2.42,176.74c-1.02-.31-1.83-.72-2.42-1.24l.91-2.04c.58.46,1.29.83,2.14,1.12.84.29,1.69.44,2.54.44,1.05,0,1.84-.17,2.36-.51.52-.34.78-.78.78-1.34,0-.41-.15-.74-.44-1-.29-.26-.66-.47-1.1-.62s-1.05-.32-1.82-.51c-1.08-.26-1.95-.51-2.62-.77-.67-.26-1.24-.66-1.72-1.2-.48-.55-.72-1.29-.72-2.22,0-.78.21-1.49.64-2.14.42-.64,1.07-1.15,1.92-1.53.86-.38,1.91-.57,3.15-.57.86,0,1.71.11,2.55.32.84.22,1.56.53,2.17.93l-.83,2.04c-.62-.36-1.27-.64-1.94-.83-.67-.19-1.33-.28-1.96-.28-1.04,0-1.81.17-2.32.53-.51.35-.76.82-.76,1.4,0,.4.14.74.44.99.29.26.66.46,1.1.61s1.05.32,1.82.51c1.05.24,1.92.5,2.59.76.67.26,1.25.67,1.73,1.21.48.54.72,1.27.72,2.19,0,.78-.21,1.49-.64,2.12-.43.63-1.07,1.14-1.93,1.52s-1.92.57-3.16.57c-1.09,0-2.15-.16-3.17-.46Z"/><path d="m24.69,165.06h-4.7v-2.23h12.02v2.23h-4.7v11.94h-2.63v-11.94Z"/><path d="m48.01,172v5h-2.63v-4.96l-5.57-9.21h2.81l4.15,6.9,4.19-6.9h2.59l-5.55,9.17Z"/><path d="m63.17,162.84h2.63v11.94h7.41v2.23h-10.04v-14.17Z"/><path d="m94.02,174.8v2.21h-10.63v-14.17h10.34v2.21h-7.71v3.68h6.84v2.17h-6.84v3.91h8Z"/><path d="m119.96,176.74c-1.02-.31-1.83-.72-2.42-1.24l.91-2.04c.58.46,1.29.83,2.14,1.12.84.29,1.69.44,2.54.44,1.05,0,1.84-.17,2.36-.51.52-.34.78-.78.78-1.34,0-.41-.15-.74-.44-1-.29-.26-.66-.47-1.1-.62s-1.05-.32-1.82-.51c-1.08-.26-1.95-.51-2.62-.77-.67-.26-1.24-.66-1.72-1.2-.48-.55-.72-1.29-.72-2.22,0-.78.21-1.49.64-2.14.42-.64,1.07-1.15,1.92-1.53.86-.38,1.91-.57,3.15-.57.86,0,1.71.11,2.55.32.84.22,1.56.53,2.17.93l-.83,2.04c-.62-.36-1.27-.64-1.94-.83-.67-.19-1.33-.28-1.96-.28-1.04,0-1.81.17-2.32.53-.51.35-.76.82-.76,1.4,0,.4.14.74.44.99.29.26.66.46,1.1.61s1.05.32,1.82.51c1.05.24,1.92.5,2.59.76.67.26,1.25.67,1.73,1.21.48.54.72,1.27.72,2.19,0,.78-.21,1.49-.64,2.12-.43.63-1.07,1.14-1.93,1.52s-1.92.57-3.16.57c-1.09,0-2.15-.16-3.17-.46Z"/><path d="m142.24,176.26c-1.15-.63-2.06-1.49-2.71-2.6s-.98-2.35-.98-3.74.33-2.64.99-3.75c.66-1.11,1.57-1.97,2.72-2.6,1.15-.63,2.45-.94,3.88-.94,1.16,0,2.22.2,3.18.61.96.4,1.77.99,2.43,1.76l-1.7,1.6c-1.03-1.11-2.29-1.66-3.79-1.66-.97,0-1.84.21-2.61.64s-1.37,1.02-1.8,1.77c-.43.76-.65,1.61-.65,2.57s.22,1.81.65,2.57,1.03,1.35,1.8,1.77c.77.42,1.64.64,2.61.64,1.5,0,2.76-.56,3.79-1.68l1.7,1.62c-.66.77-1.47,1.36-2.44,1.76-.96.41-2.03.61-3.19.61-1.43,0-2.72-.31-3.88-.94Z"/><path d="m171.64,177l-2.89-4.15c-.12.01-.3.02-.55.02h-3.2v4.13h-2.63v-14.17h5.83c1.23,0,2.3.2,3.21.61.91.41,1.61.99,2.09,1.74.49.76.73,1.65.73,2.69s-.26,1.98-.78,2.75c-.52.77-1.26,1.34-2.24,1.72l3.26,4.66h-2.83Zm-.95-11.21c-.59-.49-1.46-.73-2.61-.73h-3.08v5.65h3.08c1.15,0,2.02-.25,2.61-.74.59-.49.89-1.19.89-2.1s-.3-1.6-.89-2.08Z"/><path d="m185.26,162.84h2.63v14.17h-2.63v-14.17Z"/><path d="m208.85,163.44c.91.41,1.61.99,2.09,1.74.49.76.73,1.65.73,2.69s-.24,1.92-.73,2.68c-.49.76-1.18,1.35-2.09,1.75-.91.41-1.98.61-3.21.61h-3.2v4.09h-2.63v-14.17h5.83c1.23,0,2.3.2,3.21.61Zm-.72,6.52c.59-.49.89-1.18.89-2.08s-.3-1.6-.89-2.08c-.59-.49-1.46-.73-2.61-.73h-3.08v5.63h3.08c1.15,0,2.02-.24,2.61-.73Z"/><path d="m224.87,165.06h-4.7v-2.23h12.02v2.23h-4.7v11.94h-2.63v-11.94Z"/></g></svg>